Coordinates
version=1
nRows=10
nColumns=27
inDegrees=yes

Units are S.I. units (second, meters, Newtons, ...)
If the header above contains a line with 'inDegrees', this indicates whether rotational values are in degrees (yes) or radians (no).

endheader
time	r_x	r_y	r_z	t_x	t_y	t_z	sternoclavicular_r2	sternoclavicular_r3	unrotscap_r3	unrotscap_r2	acromioclavicular_r2	acromioclavicular_r3	acromioclavicular_r1	unrothum_r1	unrothum_r3	unrothum_r2	elv_angle	shoulder_elv	shoulder1_r2	shoulder_rot	elbow_flexion	pro_sup	deviation	flexion	wrist_hand_r1	wrist_hand_r3
      5.00000000	     56.74620056	     83.02128907	    -49.65368819	      0.45583233	      1.24199141	     -0.20955062	     -8.32607559	      3.52653265	     -3.52653265	      8.32607559	     -1.68586094	     13.62453511	      6.12413476	     -6.12413476	    -13.62453511	      1.68586094	     -0.56247167	     34.40519390	      0.56247167	     45.83871838	     87.02263874	     13.14942381	     -0.02811502	      0.51967203	     -2.22324483	     14.88750691
      5.01000000	     56.99439027	     83.11370110	    -49.89201330	      0.45565108	      1.24196056	     -0.20948957	     -8.45125689	      3.57955354	     -3.57955354	      8.45125689	     -1.71120761	     13.82937797	      6.21621022	     -6.21621022	    -13.82937797	      1.71120761	     -0.16480484	     34.92247087	      0.16480484	     45.86159121	     86.91113503	     10.50472523	     -0.01180790	      0.54560347	     -0.92470251	     15.63038793
      5.02000000	     57.19536095	     83.20364177	    -50.08517020	      0.45544181	      1.24194744	     -0.20944539	     -8.58274572	      3.63524600	     -3.63524600	      8.58274572	     -1.73783142	     14.04454226	      6.31292509	     -6.31292509	    -14.04454226	      1.73783142	      0.27260547	     35.46581191	     -0.27260547	     45.85004888	     86.73082618	      8.26536499	     -0.00273824	      0.57487331	     -0.21327268	     16.46890724
      5.03000000	     57.47859316	     83.25573432	    -50.37726808	      0.45526568	      1.24196401	     -0.20939120	     -8.72444125	      3.69526154	     -3.69526154	      8.72444125	     -1.76652189	     14.27640849	      6.41714736	     -6.41714736	    -14.27640849	      1.76652189	      0.83128476	     36.05132934	     -0.83128476	     45.70607883	     86.45628146	      7.31090498	     -0.01309700	      0.62502605	     -1.02644195	     17.90567727
      5.04000000	     57.70003065	     83.38052409	    -50.56983436	      0.45503052	      1.24195370	     -0.20932123	     -8.85920735	      3.75234210	     -3.75234210	      8.85920735	     -1.79380928	     14.49693560	      6.51627278	     -6.51627278	    -14.49693560	      1.79380928	      1.24025237	     36.60821277	     -1.24025237	     45.71857502	     86.20930530	      4.91977734	     -0.00178218	      0.64313941	     -0.13872843	     18.42458691
      5.05000000	     57.93620474	     83.46195515	    -50.80642494	      0.45483276	      1.24195801	     -0.20924475	     -9.00495703	      3.81407479	     -3.81407479	      9.00495703	     -1.82332062	     14.73543591	      6.62347703	     -6.62347703	    -14.73543591	      1.82332062	      1.79018226	     37.21048283	     -1.79018226	     45.72503177	     85.91461362	      2.84201732	      0.00804694	      0.66716574	      0.62268078	     19.11289066
      5.06000000	     58.18434284	     83.52676226	    -51.07034518	      0.45465565	      1.24195952	     -0.20919953	     -9.15475715	      3.87752305	     -3.87752305	      9.15475715	     -1.85365210	     14.98056425	      6.73366053	     -6.73366053	    -14.98056425	      1.85365210	      2.39251057	     37.82949022	     -2.39251057	     45.69821458	     85.60144136	      1.17023738	      0.01710008	      0.69416738	      1.31596196	     19.88643044
      5.07000000	     58.41496594	     83.64958853	    -51.28689636	      0.45440608	      1.24197575	     -0.20908900	     -9.29318769	      3.93615569	     -3.93615569	      9.29318769	     -1.88168147	     15.20708774	      6.83548128	     -6.83548128	    -15.20708774	      1.88168147	      2.91003573	     38.40151595	     -2.91003573	     45.67784826	     85.22744254	     -0.51229980	      0.02295791	      0.71122223	      1.76045409	     20.37501616
      5.08000000	     58.66755270	     83.74158815	    -51.53601566	      0.45418632	      1.24197347	     -0.20899570	     -9.43949374	      3.99812403	     -3.99812403	      9.43949374	     -1.91130547	     15.44649847	      6.94309476	     -6.94309476	    -15.44649847	      1.91130547	      3.49532828	     39.00608503	     -3.49532828	     45.65992547	     84.84790270	     -2.04575600	      0.02862810	      0.72916727	      2.18764152	     20.88910353
      5.09000000	     58.93819224	     83.83924376	    -51.79955149	      0.45396630	      1.24197950	     -0.20888743	     -9.58170660	      4.05835868	     -4.05835868	      9.58170660	     -1.94010068	     15.67921125	      7.04769755	     -7.04769755	    -15.67921125	      1.94010068	      4.08345030	     39.59374018	     -4.08345030	     45.62933631	     84.44486064	     -3.35722778	      0.03447113	      0.74461557	      2.62470336	     21.33166464
